<svg role="img" viewBox="0 0 40 40" xmlns="http://www.w3.org/2000/svg"><path fill="#F97316" d="M12 3h11.2c.53 0 1.04.21 1.41.59l6.8 6.8c.38.37.59.88.59 1.41V33a4 4 0 0 1-4 4H12a4 4 0 0 1-4-4V7a4 4 0 0 1 4-4Z"/><path fill="#FFFFFF" fill-opacity="0.4" d="M24.5 3.4V9a2 2 0 0 0 2 2h5.6L24.5 3.4Z"/><path fill="none" stroke="#FFFFFF" stroke-linecap="round" stroke-linejoin="round" stroke-width="2.6" d="m20 15.5 6.5 6.5-6.5 6.5-6.5-6.5 6.5-6.5Z"/><path stroke="#FFFFFF" stroke-linecap="round" stroke-width="2.2" d="M17.7 22h4.6"/></svg>
